<svg xmlns="http://www.w3.org/2000/svg" width="300" height="300" fill="none"><path fill="#1F1B13" d="M101.161 186.748c-21.145-5.473-42.806-8.468-64.047-13.458-1.067-2.061 3.62-.708 4.785-1.385 5.399.999 10.636 2.737 16.1 3.027 20.757 5.248 42.418 6.633 62.786 13.555 7.436 2.286 17.168 3.799 22.309-3.123-2.07-3.993-6.758-5.924-9.764-9.209 4.785-.45 9.537-.901 14.225-1.738 3.427-.644 6.628-.773 9.958-.998 6.337-.58 12.674-1.449 19.043-1.031 3.298-1.674 7.145-.933 10.669-1.255 7.921.45 15.713-1.224 23.569-1.514a27.7 27.7 0 0 1 4.785-1.094c2.651.676 4.397.547 5.529-.097 1.357 0 2.748 0 4.106-.064 5.56-.805 11.121-.58 16.65-1.063 7.824-.193 15.228-2.994 22.987-3.284 4.656-.322 9.343-.708 13.902-1.545 6.046-1.192 5.205-13.588-3.233-9.08-.582-2.704-11.283 2.994-9.344-2.125 4.3-1.223 8.633-2.447 12.771-4.121.259-6.182-9.279-1.191-13.126-3.51 2.425-1.996 5.561-3.187 7.468-5.763-8.47 1.739-16.941 3.284-25.509 4.347-13.579.483-26.963 3.219-40.542 3.477-15.519-.097-31.523 3.509-46.653 1.835.743-.354 2.198-1.03 2.909-1.384 8.277 0 16.457-1.417 24.636-2.544 11.93-2.221 24.184-1.223 36.146-3.348 10.022-.065 20.368.354 30.035-2.608 4.591-.87 9.085-2.158 13.611-3.188-.194-.418-.549-1.223-.743-1.642-4.721 1.385-9.667 2.447-14.614 2.544-1.616.225-3.233.45-4.785.933-3.427.129-7.048.387-10.539.226-4.85.773-9.57 1.867-14.582 1.159 1.779-.708 3.621-1.224 5.367-1.9-3.524-.193-7.209-.225-10.798-.418-4.559.289-9.117.933-13.611 1.706-9.344.354-19.237-2.769-28.29.676-5.108.805-10.087 1.836-15.324 1.771-5.464 1.771-11.349.322-17.006.773h-2.393c-9.246.418-18.428-1.385-27.675-.966-1.94-.386-5.076.418-4.85-2.511a59 59 0 0 0 1.682-1.321c2.23 0 4.106-.998 5.884-2.125 1.713-1.448.517-3.477.194-5.215 1.649.772 2.522 3.026 4.526 1.609 5.108-1.835 11.284-4.829 11.607-10.85-3.201-3.896 1.067-9.563-5.626-10.69-7.921-1.255-15.939 3.124-23.051 6.858-4.72 2.029-9.247 4.54-14 6.569l-.258.869c-9.7 3.992-19.27 8.21-29.389 11.108-2.586.934-5.205 1.803-7.76 2.866-9.343 1.931-18.686 3.928-27.933 6.407-.355 2.318-1.034 4.604-2.36 6.6 5.4 1.256 1.681 6.89.356 10.207-.744 3.252 2.101 5.151 4.914 5.892.582 2.608 3.233 3.638 5.367 4.733-4.947 3.702-14.97-8.307-14.97-.097l.389.934c.646.225 1.972.676 2.618.901 11.963 4.637 24.442 7.792 36.954 10.625 4.462.58 8.859 1.353 13.191 2.415 11.833 2.19 24.054 3.671 35.402 7.663 10.12.773-.84-3.574-4.72-5.924z" opacity=".3"/></svg>