<svg xmlns="http://www.w3.org/2000/svg" width="300" height="300" fill="none"><path fill="#1F1B13" d="M198.778 186.748c21.144-5.473 42.806-8.468 64.047-13.458 1.067-2.061-3.621-.708-4.785-1.385-5.399.999-10.637 2.737-16.101 3.027-20.756 5.248-42.418 6.633-62.786 13.555-7.436 2.286-17.168 3.799-22.308-3.123 2.069-3.993 6.757-5.924 9.764-9.209-4.785-.45-9.538-.901-14.226-1.738-3.427-.644-6.628-.773-9.958-.998-6.336-.58-12.673-1.449-19.042-1.031-3.298-1.674-7.145-.933-10.669-1.255-7.922.45-15.713-1.224-23.57-1.514a28 28 0 0 0-4.785-1.094c-2.65.676-4.396.547-5.528-.097-1.358 0-2.748 0-4.106-.064-5.56-.805-11.122-.58-16.65-1.063-7.824-.193-15.228-2.994-22.987-3.284-4.656-.322-9.344-.708-13.903-1.545-6.045-1.192-5.205-13.588 3.233-9.08.582-2.704 11.284 2.994 9.344-2.125-4.3-1.223-8.632-2.447-12.77-4.121-.26-6.182 9.278-1.191 13.126-3.51-2.425-1.996-5.561-3.187-7.469-5.763 8.47 1.739 16.941 3.284 25.51 4.347 13.578.483 26.963 3.219 40.542 3.477 15.519-.097 31.522 3.509 46.653 1.835-.744-.354-2.199-1.03-2.91-1.384-8.276 0-16.456-1.417-24.636-2.544-11.93-2.221-24.183-1.223-36.145-3.348-10.023-.065-20.369.354-30.036-2.608-4.59-.87-9.085-2.158-13.61-3.188.193-.418.549-1.223.743-1.642 4.72 1.385 9.667 2.447 14.613 2.544 1.617.225 3.233.45 4.785.933 3.427.129 7.048.387 10.54.226 4.85.773 9.57 1.867 14.581 1.159-1.778-.708-3.62-1.224-5.367-1.9 3.524-.193 7.21-.225 10.799-.418 4.558.289 9.117.933 13.61 1.706 9.344.354 19.238-2.769 28.29.676 5.108.805 10.087 1.836 15.325 1.771 5.464 1.771 11.348.322 17.006.773h2.392c9.247.418 18.429-1.385 27.675-.966 1.94-.386 5.076.418 4.85-2.511-.42-.322-1.261-.966-1.681-1.321-2.231 0-4.106-.998-5.884-2.125-1.714-1.448-.518-3.477-.194-5.215-1.649.772-2.522 3.026-4.527 1.609-5.108-1.835-11.283-4.829-11.606-10.85 3.2-3.896-1.067-9.563 5.625-10.69 7.921-1.255 15.939 3.124 23.052 6.858 4.72 2.029 9.246 4.54 13.999 6.569l.259.869c9.699 3.992 19.269 8.21 29.388 11.108 2.587.934 5.206 1.803 7.76 2.866 9.343 1.931 18.687 3.928 27.933 6.407.356 2.318 1.035 4.604 2.361 6.6-5.4 1.256-1.682 6.89-.356 10.207.744 3.252-2.102 5.151-4.914 5.892-.582 2.608-3.233 3.638-5.367 4.733 4.946 3.702 14.969-8.307 14.969-.097l-.388.934c-.647.225-1.972.676-2.619.901-11.962 4.637-24.442 7.792-36.954 10.625-4.462.58-8.858 1.353-13.191 2.415-11.833 2.19-24.054 3.671-35.402 7.663-10.119.773.841-3.574 4.72-5.924z"/></svg>