<svg width="192" height="61" viewBox="0 0 192 61" fill="none" xmlns="http://www.w3.org/2000/svg">
<path d="M60.9651 56.4799C45.8 52.5542 30.2639 50.4066 15.0292 46.8273C14.264 45.3493 17.6263 46.3192 18.4611 45.8343C22.3335 46.5501 26.09 47.7971 30.0088 48.005C44.8956 51.769 60.4317 52.762 75.0403 57.7269C80.3736 59.3665 87.3533 60.4518 91.0402 55.4869C89.5562 52.6235 86.1939 51.2379 84.0374 48.8825C87.4692 48.5592 90.8779 48.2359 94.2402 47.6355C96.6981 47.1736 98.9937 47.0813 101.382 46.9196C105.927 46.504 110.472 45.8805 115.04 46.1807C117.405 44.9799 120.165 45.511 122.692 45.2801C128.373 45.6034 133.962 44.4026 139.596 44.1947C140.733 43.8252 141.869 43.5712 143.028 43.4096C144.93 43.8945 146.182 43.8021 146.993 43.3403C147.967 43.3403 148.964 43.3403 149.938 43.2941C153.927 42.7168 157.915 42.8785 161.88 42.5321C167.492 42.3935 172.802 40.3845 178.367 40.1766C181.706 39.9457 185.068 39.6686 188.338 39.0682C192.674 38.2138 192.071 29.3232 186.019 32.5561C185.602 30.6164 177.926 34.7037 179.318 31.032C182.402 30.1545 185.509 29.277 188.477 28.0762C188.663 23.6424 181.822 27.2218 179.063 25.5591C180.802 24.1274 183.051 23.273 184.419 21.4256C178.344 22.6726 172.269 23.781 166.124 24.543C156.385 24.8894 146.785 26.8523 137.046 27.037C125.915 26.9678 114.437 29.5541 103.585 28.3533C104.118 28.0993 105.162 27.6143 105.672 27.3603C111.608 27.3603 117.475 26.3443 123.341 25.536C131.898 23.9426 140.686 24.6585 149.266 23.1344C156.454 23.0882 163.874 23.3884 170.808 21.2639C174.1 20.6404 177.324 19.7167 180.57 18.9778C180.431 18.6776 180.176 18.1003 180.037 17.8001C176.651 18.793 173.103 19.5551 169.555 19.6244C168.396 19.786 167.237 19.9476 166.124 20.294C163.666 20.3864 161.069 20.5711 158.564 20.4557C155.086 21.0099 151.701 21.795 148.106 21.287C149.382 20.779 150.703 20.4095 151.956 19.9246C149.428 19.786 146.785 19.7629 144.211 19.6244C140.941 19.8322 137.672 20.294 134.449 20.8483C127.747 21.1023 120.652 18.8623 114.159 21.3332C110.495 21.9105 106.924 22.6495 103.168 22.6033C99.2488 23.8734 95.0286 22.8342 90.9706 23.1575L89.2547 23.1575C82.6229 23.4577 76.0374 22.1645 69.4056 22.4647C68.0143 22.1876 65.7651 22.7649 65.9274 20.6635C66.2288 20.4326 66.8317 19.9707 67.1331 19.7167C68.7331 19.7167 70.0781 19.0009 71.3534 18.1926C72.5824 17.1535 71.7244 15.6986 71.4925 14.4516C72.6751 15.0059 73.3012 16.6223 74.7389 15.6063C78.4026 14.29 82.8316 12.1424 83.0635 7.82411C80.7678 5.02993 83.8287 0.965655 79.0287 0.15742C73.3476 -0.743186 67.5969 2.39739 62.4955 5.07611C59.11 6.53093 55.8637 8.33214 52.455 9.78697L52.2695 10.4105C45.313 13.2739 38.4493 16.299 31.1914 18.3774C29.3364 19.047 27.4581 19.6705 25.6262 20.4326C18.9248 21.8181 12.2234 23.2499 5.59163 25.028C5.33655 26.6906 4.84959 28.3302 3.89888 29.7619C7.7713 30.6625 5.10466 34.7037 4.15394 37.0822C3.62062 39.4146 5.66119 40.777 7.67857 41.3082C8.09595 43.1786 9.99737 43.9176 11.5278 44.7027C7.98001 47.3584 0.79167 38.7449 0.79167 44.6335L1.06991 45.3031C1.53367 45.4648 2.4844 45.7881 2.94816 45.9497C11.5278 49.2751 20.4785 51.5381 29.4523 53.5702C32.6523 53.9859 35.8059 54.5401 38.9131 55.3022C47.4 56.8725 56.1651 57.9347 64.3042 60.7982C71.5621 61.3524 63.7013 58.2349 60.9187 56.5492L60.9651 56.4799Z" fill="#261900"/>
</svg>
