<svg width="192" height="62" viewBox="0 0 192 62" fill="none" xmlns="http://www.w3.org/2000/svg">
<path d="M130.978 56.6908C146.143 52.7651 161.679 50.6175 176.914 47.0382C177.679 45.5603 174.317 46.5302 173.482 46.0452C169.609 46.7611 165.853 48.0081 161.934 48.2159C147.047 51.98 131.511 52.973 116.903 57.9378C111.569 59.5774 104.59 60.6627 100.903 55.6979C102.387 52.8344 105.749 51.4489 107.906 49.0934C104.474 48.7701 101.065 48.4468 97.7027 47.8464C95.2447 47.3846 92.9491 47.2922 90.5607 47.1306C86.0158 46.7149 81.471 46.0914 76.9029 46.3916C74.5377 45.1908 71.7783 45.7219 69.2508 45.491C63.5697 45.8143 57.9813 44.6135 52.3466 44.4057C51.2103 44.0362 50.0741 43.7822 48.9147 43.6205C47.0133 44.1055 45.7611 44.0131 44.9495 43.5512C43.9756 43.5512 42.9785 43.5512 42.0046 43.5051C38.0162 42.9277 34.0279 43.0894 30.0627 42.743C24.4511 42.6044 19.141 40.5954 13.5759 40.3876C10.2368 40.1567 6.87447 39.8795 3.60493 39.2791C-0.731266 38.4247 -0.128372 29.5341 5.92375 32.7671C6.34114 30.8273 14.0164 34.9147 12.6251 31.243C9.54111 30.3654 6.43389 29.4879 3.4658 28.2871C3.28029 23.8534 10.1208 27.4327 12.8802 25.7701C11.1411 24.3383 8.89184 23.4839 7.52374 21.6365C13.599 22.8835 19.6744 23.9919 25.8192 24.754C35.5583 25.1004 45.1582 27.0632 54.8973 27.248C66.0276 27.1787 77.5058 29.765 88.3579 28.5642C87.8245 28.3102 86.781 27.8253 86.2709 27.5713C80.3347 27.5713 74.4681 26.5552 68.6015 25.747C60.045 24.1536 51.2567 24.8694 42.6771 23.3453C35.4887 23.2992 28.0685 23.5994 21.1352 21.4749C17.8425 20.8514 14.6193 19.9277 11.373 19.1887C11.5121 18.8885 11.7672 18.3112 11.9063 18.011C15.2918 19.004 18.8396 19.766 22.3874 19.8353C23.5468 19.9969 24.7062 20.1586 25.8192 20.505C28.2772 20.5973 30.8743 20.7821 33.3786 20.6666C36.8568 21.2208 40.2423 22.006 43.8365 21.4979C42.5611 20.9899 41.2394 20.6204 39.9872 20.1355C42.5148 19.9969 45.1582 19.9738 47.7321 19.8353C51.0016 20.0431 54.2712 20.505 57.4943 21.0592C64.1957 21.3132 71.2913 19.0732 77.784 21.5441C81.4478 22.1214 85.0187 22.8604 88.7752 22.8142C92.694 24.0843 96.9143 23.0451 100.972 23.3684L102.688 23.3684C109.32 23.6686 115.905 22.3755 122.537 22.6757C123.929 22.3986 126.178 22.9759 126.016 20.8744C125.714 20.6435 125.111 20.1817 124.81 19.9277C123.21 19.9277 121.865 19.2118 120.589 18.4036C119.36 17.3644 120.218 15.9096 120.45 14.6626C119.268 15.2168 118.642 16.8333 117.204 15.8172C113.54 14.5009 109.111 12.3533 108.879 8.03505C111.175 5.24086 108.114 1.17659 112.914 0.368357C118.595 -0.532249 124.346 2.60832 129.447 5.28705C132.833 6.74187 136.079 8.54308 139.488 9.99791L139.673 10.6214C146.63 13.4849 153.494 16.51 160.751 18.5883C162.607 19.258 164.485 19.8815 166.317 20.6435C173.018 22.0291 179.719 23.4608 186.351 25.2389C186.606 26.9016 187.093 28.5411 188.044 29.9729C184.172 30.8735 186.838 34.9147 187.789 37.2932C188.322 39.6255 186.282 40.988 184.264 41.5191C183.847 43.3896 181.945 44.1285 180.415 44.9137C183.963 47.5693 191.151 38.9558 191.151 44.8444L190.873 45.5141C190.409 45.6757 189.458 45.999 188.995 46.1607C180.415 49.486 171.464 51.749 162.491 53.7812C159.291 54.1968 156.137 54.7511 153.03 55.5131C144.543 57.0834 135.778 58.1457 127.639 61.0091C120.381 61.5633 128.242 58.4459 131.024 56.7601L130.978 56.6908Z" fill="#261900"/>
</svg>
