<svg width="106" height="106" viewBox="0 0 106 106" fill="none" xmlns="http://www.w3.org/2000/svg">
<path d="M45.9125 72.6875L71.5063 56.2812C72.7313 55.4937 73.3438 54.4 73.3438 53C73.3438 51.6 72.7313 50.5063 71.5063 49.7188L45.9125 33.3125C44.6 32.4375 43.2648 32.371 41.9068 33.113C40.5488 33.855 39.8715 35.0153 39.875 36.5938V69.4062C39.875 70.9813 40.554 72.1415 41.912 72.887C43.27 73.6325 44.6035 73.566 45.9125 72.6875ZM53 105.5C45.7375 105.5 38.9125 104.121 32.525 101.363C26.1375 98.605 20.5813 94.8653 15.8563 90.1438C11.1313 85.4223 7.39151 79.866 4.63701 73.475C1.88251 67.084 0.503507 60.259 0.500007 53C0.496507 45.741 1.87551 38.916 4.63701 32.525C7.39851 26.134 11.1383 20.5778 15.8563 15.8563C20.5743 11.1348 26.1305 7.395 32.525 4.637C38.9195 1.879 45.7445 0.5 53 0.5C60.2555 0.5 67.0805 1.879 73.475 4.637C79.8695 7.395 85.4258 11.1348 90.1438 15.8563C94.8618 20.5778 98.6033 26.134 101.368 32.525C104.133 38.916 105.511 45.741 105.5 53C105.49 60.259 104.111 67.084 101.363 73.475C98.6155 79.866 94.8758 85.4223 90.1438 90.1438C85.4118 94.8653 79.8555 98.6067 73.475 101.368C67.0945 104.13 60.2695 105.507 53 105.5Z" fill="white"/>
</svg>
