<svg width="32" height="32" viewBox="0 0 32 32" fill="none" xmlns="http://www.w3.org/2000/svg">
<path d="M16.002 20.6654L6.33529 30.332C5.72418 30.9431 4.9464 31.2487 4.00195 31.2487C3.05751 31.2487 2.27973 30.9431 1.66862 30.332C1.05751 29.7209 0.751953 28.9431 0.751953 27.9987C0.751953 27.0543 1.05751 26.2765 1.66862 25.6654L11.3353 15.9987L1.66862 6.41537C1.05751 5.80425 0.751953 5.02648 0.751953 4.08203C0.751953 3.13759 1.05751 2.35981 1.66862 1.7487C2.27973 1.13759 3.05751 0.832031 4.00195 0.832031C4.9464 0.832031 5.72418 1.13759 6.33529 1.7487L16.002 11.4154L25.5853 1.7487C26.1964 1.13759 26.9742 0.832031 27.9186 0.832031C28.8631 0.832031 29.6408 1.13759 30.252 1.7487C30.9186 2.41536 31.252 3.20759 31.252 4.12536C31.252 5.04314 30.9186 5.80648 30.252 6.41537L20.5853 15.9987L30.252 25.6654C30.8631 26.2765 31.1686 27.0543 31.1686 27.9987C31.1686 28.9431 30.8631 29.7209 30.252 30.332C29.5853 30.9987 28.7942 31.332 27.8786 31.332C26.9631 31.332 26.1986 30.9987 25.5853 30.332L16.002 20.6654Z" fill="#181818"/>
</svg>
