<svg width="192" height="62" viewBox="0 0 192 62" fill="none" xmlns="http://www.w3.org/2000/svg">
<path d="M60.9638 56.6905C45.7988 52.7648 30.2628 50.6172 15.0282 47.0379C14.263 45.56 17.6253 46.5299 18.46 46.045C22.3324 46.7608 26.0889 48.0078 30.0077 48.2156C44.8945 51.9797 60.4305 52.9727 75.039 57.9375C80.3723 59.5771 87.3519 60.6624 91.0388 55.6976C89.5547 52.8341 86.1925 51.4486 84.036 49.0932C87.4678 48.7699 90.8765 48.4466 94.2387 47.8462C96.6967 47.3843 98.9923 47.292 101.381 47.1303C105.926 46.7146 110.47 46.0912 115.038 46.3914C117.404 45.1906 120.163 45.7217 122.691 45.4908C128.372 45.814 133.96 44.6132 139.595 44.4054C140.731 44.0359 141.867 43.7819 143.026 43.6203C144.928 44.1052 146.18 44.0128 146.992 43.551C147.966 43.551 148.963 43.551 149.937 43.5048C153.925 42.9275 157.913 43.0892 161.878 42.7428C167.49 42.6042 172.8 40.5952 178.365 40.3874C181.704 40.1564 185.066 39.8793 188.336 39.2789C192.672 38.4245 192.069 29.534 186.017 32.7669C185.6 30.8271 177.925 34.9145 179.316 31.2428C182.4 30.3653 185.507 29.4878 188.475 28.287C188.661 23.8533 181.82 27.4326 179.061 25.7699C180.8 24.3382 183.049 23.4838 184.417 21.6364C178.342 22.8834 172.267 23.9918 166.122 24.7539C156.383 25.1002 146.783 27.0631 137.044 27.2478C125.914 27.1785 114.436 29.7649 103.584 28.5641C104.117 28.3101 105.16 27.8251 105.67 27.5711C111.607 27.5711 117.473 26.555 123.34 25.7468C131.896 24.1534 140.684 24.8693 149.264 23.3452C156.452 23.299 163.873 23.5992 170.806 21.4747C174.099 20.8512 177.322 19.9276 180.568 19.1886C180.429 18.8884 180.174 18.3111 180.035 18.0109C176.649 19.0039 173.101 19.7659 169.554 19.8352C168.394 19.9968 167.235 20.1585 166.122 20.5049C163.664 20.5972 161.067 20.782 158.562 20.6665C155.084 21.2207 151.699 22.0059 148.105 21.4978C149.38 20.9898 150.702 20.6203 151.954 20.1354C149.426 19.9968 146.783 19.9737 144.209 19.8352C140.94 20.043 137.67 20.5049 134.447 21.0591C127.746 21.3131 120.65 19.0731 114.157 21.544C110.494 22.1213 106.923 22.8603 103.166 22.8141C99.2474 24.0842 95.0271 23.045 90.9692 23.3683L89.2533 23.3683C82.6215 23.6685 76.0361 22.3753 69.4043 22.6755C68.013 22.3984 65.7638 22.9757 65.9261 20.8743C66.2275 20.6434 66.8304 20.1816 67.1319 19.9276C68.7318 19.9276 70.0768 19.2117 71.3521 18.4035C72.5811 17.3643 71.7231 15.9095 71.4912 14.6625C72.6738 15.2167 73.2999 16.8332 74.7376 15.8171C78.4013 14.5009 82.8302 12.3533 83.0621 8.03501C80.7665 5.24084 83.8273 1.17659 79.0274 0.368356C73.3463 -0.532245 67.5956 2.60831 62.4942 5.28702C59.1088 6.74184 55.8624 8.54304 52.4538 9.99785L52.2683 10.6213C45.3119 13.4848 38.4482 16.5099 31.1903 18.5882C29.3353 19.2579 27.457 19.8814 25.6252 20.6434C18.9238 22.0289 12.2225 23.4607 5.59067 25.2388C5.3356 26.9014 4.84863 28.541 3.89792 29.9727C7.77033 30.8733 5.10371 34.9145 4.153 37.293C3.61967 39.6253 5.66023 40.9877 7.6776 41.5189C8.09498 43.3894 9.99639 44.1283 11.5268 44.9134C7.97903 47.5691 0.790724 38.9556 0.790724 44.8442L1.06897 45.5138C1.53273 45.6755 2.48346 45.9988 2.94722 46.1604C11.5268 49.4857 20.4774 51.7488 29.4512 53.7809C32.6512 54.1966 35.8047 54.7508 38.9119 55.5128C47.3988 57.0831 56.1639 58.1453 64.3029 61.0088C71.5608 61.563 63.7 58.4455 60.9174 56.7598L60.9638 56.6905Z" fill="white"/>
</svg>
