<svg width="116" height="117" viewBox="0 0 116 117" fill="none" xmlns="http://www.w3.org/2000/svg">
<path d="M50.1421 80.126L78.2561 62.1042C79.6018 61.2391 80.2746 60.0377 80.2746 58.4998C80.2746 56.962 79.6018 55.7605 78.2561 54.8955L50.1421 36.8737C48.7004 35.9125 47.2337 35.8395 45.7419 36.6545C44.2502 37.4696 43.5063 38.7441 43.5101 40.478V76.5216C43.5101 78.2517 44.256 79.5262 45.7477 80.3451C47.2394 81.164 48.7042 81.091 50.1421 80.126ZM57.9276 116.17C49.9499 116.17 42.4529 114.655 35.4364 111.625C28.4199 108.596 22.3165 104.488 17.1262 99.3012C11.9359 94.1148 7.82794 88.0114 4.8022 80.991C1.77646 73.9707 0.261664 66.4736 0.25782 58.4998C0.253975 50.526 1.76877 43.029 4.8022 36.0086C7.83562 28.9883 11.9436 22.8849 17.1262 17.6985C22.3088 12.512 28.4122 8.40404 35.4364 5.37446C42.4605 2.34487 49.9576 0.830078 57.9276 0.830078C65.8975 0.830078 73.3946 2.34487 80.4188 5.37446C87.4429 8.40404 93.5463 12.512 98.7289 17.6985C103.912 22.8849 108.021 28.9883 111.059 36.0086C114.096 43.029 115.609 50.526 115.597 58.4998C115.586 66.4736 114.071 73.9707 111.053 80.991C108.035 88.0114 103.927 94.1148 98.7289 99.3012C93.531 104.488 87.4276 108.598 80.4188 111.631C73.41 114.664 65.9129 116.177 57.9276 116.17Z" fill="white"/>
</svg>
