<svg width="138" height="138" viewBox="0 0 138 138" fill="none" xmlns="http://www.w3.org/2000/svg">
<path d="M82.9752 69.3456L41.0437 27.4141C39.6175 25.9879 38.9272 24.2992 38.9728 22.3481C39.0185 20.397 39.7563 18.7102 41.1864 17.2878C42.6164 15.8654 44.3051 15.1523 46.2524 15.1485C48.1996 15.1446 49.8864 15.8578 51.3127 17.2878L95.0982 61.216C96.2392 62.357 97.095 63.6406 97.6654 65.0669C98.2359 66.4931 98.5212 67.9193 98.5212 69.3456C98.5212 70.7718 98.2359 72.1981 97.6654 73.6243C97.095 75.0505 96.2392 76.3342 95.0982 77.4751L51.17 121.403C49.7438 122.83 48.0798 123.52 46.1782 123.474C44.2765 123.429 42.6126 122.691 41.1864 121.261C39.7601 119.831 39.047 118.142 39.047 116.195C39.047 114.247 39.7601 112.561 41.1864 111.134L82.9752 69.3456Z" fill="#1F1B13"/>
</svg>
