<svg width="138" height="138" viewBox="0 0 138 138" fill="none" xmlns="http://www.w3.org/2000/svg">
<path d="M55.2123 69.3456L97.1438 27.4141C98.57 25.9879 99.2603 24.2992 99.2147 22.3481C99.169 20.397 98.4312 18.7102 97.0011 17.2878C95.5711 15.8654 93.8824 15.1523 91.9351 15.1485C89.9879 15.1446 88.3011 15.8578 86.8748 17.2878L43.0893 61.216C41.9483 62.357 41.0925 63.6406 40.5221 65.0669C39.9516 66.4931 39.6663 67.9193 39.6663 69.3456C39.6663 70.7718 39.9516 72.1981 40.5221 73.6243C41.0925 75.0505 41.9483 76.3342 43.0893 77.4751L87.0175 121.403C88.4437 122.83 90.1077 123.52 92.0093 123.474C93.911 123.429 95.5749 122.691 97.0011 121.261C98.4274 119.831 99.1405 118.142 99.1405 116.195C99.1405 114.247 98.4274 112.561 97.0011 111.134L55.2123 69.3456Z" fill="#1F1B13"/>
</svg>
