<svg width="94" height="95" viewBox="0 0 94 95" fill="none" xmlns="http://www.w3.org/2000/svg">
<path d="M46.7322 52.8984L27.666 71.9646C26.9526 72.6779 26.0447 73.0346 24.9422 73.0346C23.8398 73.0346 22.9318 72.6779 22.2185 71.9646C21.5051 71.2512 21.1484 70.3433 21.1484 69.2408C21.1484 68.1384 21.5051 67.2305 22.2185 66.5171L41.2847 47.4509L22.2185 28.3847C21.5051 27.6714 21.1484 26.7634 21.1484 25.661C21.1484 24.5585 21.5051 23.6506 22.2185 22.9372C22.9318 22.2239 23.8398 21.8672 24.9422 21.8672C26.0447 21.8672 26.9526 22.2239 27.666 22.9372L46.7322 42.0034L65.7983 22.9372C66.5117 22.2239 67.4196 21.8672 68.5221 21.8672C69.6246 21.8672 70.5325 22.2239 71.2458 22.9372C71.9592 23.6506 72.3159 24.5585 72.3159 25.661C72.3159 26.7634 71.9592 27.6714 71.2458 28.3847L52.1796 47.4509L71.2458 66.5171C71.9592 67.2305 72.3159 68.1384 72.3159 69.2408C72.3159 70.3433 71.9592 71.2512 71.2458 71.9646C70.5325 72.6779 69.6246 73.0346 68.5221 73.0346C67.4196 73.0346 66.5117 72.6779 65.7983 71.9646L46.7322 52.8984Z" fill="white"/>
</svg>
