<svg width="100" height="100" viewBox="0 0 100 100" fill="none" xmlns="http://www.w3.org/2000/svg">
  <path d="M40 70C41.4167 70 42.605 69.52 43.565 68.56C44.525 67.6 45.0033 66.4133 45 65V35C45 33.5833 44.52 32.3967 43.56 31.44C42.6 30.4833 41.4133 30.0033 40 30C38.5867 29.9967 37.4 30.4767 36.44 31.44C35.48 32.4033 35 33.59 35 35V65C35 66.4167 35.48 67.605 36.44 68.565C37.4 69.525 38.5867 70.0033 40 70ZM60 70C61.4167 70 62.605 69.52 63.565 68.56C64.525 67.6 65.0033 66.4133 65 65V35C65 33.5833 64.52 32.3967 63.56 31.44C62.6 30.4833 61.4133 30.0033 60 30C58.5867 29.9967 57.4 30.4767 56.44 31.44C55.48 32.4033 55 33.59 55 35V65C55 66.4167 55.48 67.605 56.44 68.565C57.4 69.525 58.5867 70.0033 60 70ZM50 100C43.0833 100 36.5833 98.6867 30.5 96.06C24.4167 93.4333 19.125 89.8717 14.625 85.375C10.125 80.8783 6.56334 75.5867 3.94001 69.5C1.31667 63.4133 0.00333966 56.9133 6.32911e-06 50C-0.003327 43.0867 1.31001 36.5867 3.94001 30.5C6.57001 24.4133 10.1317 19.1217 14.625 14.625C19.1183 10.1283 24.41 6.56667 30.5 3.94C36.59 1.31333 43.09 0 50 0C56.91 0 63.41 1.31333 69.5 3.94C75.59 6.56667 80.8817 10.1283 85.375 14.625C89.8683 19.1217 93.4317 24.4133 96.065 30.5C98.6983 36.5867 100.01 43.0867 100 50C99.99 56.9133 98.6767 63.4133 96.06 69.5C93.4433 75.5867 89.8817 80.8783 85.375 85.375C80.8683 89.8717 75.5767 93.435 69.5 96.065C63.4233 98.695 56.9233 100.007 50 100Z" fill="#8B4A61"/>
  </svg>
  