<svg width="100" height="100" viewBox="0 0 100 100" fill="none" xmlns="http://www.w3.org/2000/svg">
  <path d="M43.25 68.75L67.625 53.125C68.7917 52.375 69.375 51.3333 69.375 50C69.375 48.6667 68.7917 47.625 67.625 46.875L43.25 31.25C42 30.4167 40.7283 30.3533 39.435 31.06C38.1417 31.7667 37.4967 32.8717 37.5 34.375V65.625C37.5 67.125 38.1467 68.23 39.44 68.94C40.7333 69.65 42.0033 69.5867 43.25 68.75ZM50 100C43.0833 100 36.5833 98.6867 30.5 96.06C24.4167 93.4333 19.125 89.8717 14.625 85.375C10.125 80.8783 6.56334 75.5867 3.94001 69.5C1.31667 63.4133 0.00333966 56.9133 6.32911e-06 50C-0.003327 43.0867 1.31001 36.5867 3.94001 30.5C6.57001 24.4133 10.1317 19.1217 14.625 14.625C19.1183 10.1283 24.41 6.56667 30.5 3.94C36.59 1.31333 43.09 0 50 0C56.91 0 63.41 1.31333 69.5 3.94C75.59 6.56667 80.8817 10.1283 85.375 14.625C89.8683 19.1217 93.4317 24.4133 96.065 30.5C98.6983 36.5867 100.01 43.0867 100 50C99.99 56.9133 98.6767 63.4133 96.06 69.5C93.4433 75.5867 89.8817 80.8783 85.375 85.375C80.8683 89.8717 75.5767 93.435 69.5 96.065C63.4233 98.695 56.9233 100.007 50 100Z" fill="#8B4A61"/>
  </svg>
  